<svg xmlns="http://www.w3.org/2000/svg" width="420" height="420" viewBox="0 0 420 420"><path fill="none" stroke="#FFF" stroke-width="35" stroke-miterlimit="10" d="M300.5 402.5c-17.6 0-33.7-2.9-49.1-9-14.4-5.7-30.6-12.3-51-22.8-74.3-38-125-109.3-148.6-148.4-.5-.9-.9-1.5-1.1-1.8l-.1-.1C39.8 203.7 14.8 160 17.7 115.5c3.2-47.8 28.7-71.7 39.6-81.9.6-.6 1.2-1.1 1.7-1.6 13.1-12.6 27.5-14.5 34.9-14.5 1 0 1.9 0 2.8.1 5.2.3 11.9.8 17.9 1.5.3 0 .7 0 1 .1 10.9.7 24.4 4.5 32.5 28.2 2.1 6.1 5.1 15 8.3 24.5 5.2 15.6 13.1 39.1 14.4 42.2 4.7 11.1 4.2 21.6-1.3 31.2-.5.8-.9 1.6-1.3 2.3-2.8 4.9-5.5 9.6-11.1 15.3-1.5 1.5-3 3.1-4.6 4.9-3.4 3.6-6.9 7.4-10.3 10.4 6.2 12 20.3 36.7 40.8 57.6 24.7 25.2 46.6 36.4 58.4 42.5 2.6 1.3 4.7 2.4 6.5 3.5 8-8.2 22.3-23.1 27.1-29.4 8.2-10.7 17.6-12.9 24-12.9 6.6 0 12.3 2.3 17.2 4.4 10.1 4.5 60.1 33.5 60.6 33.8 1.6.9 3.1 1.8 4.5 2.6 7.8 4.4 14.6 8.3 18.6 16 6.4 12.4.6 38.2-7.5 56.8-12.5 28.9-57 47.1-77.4 48.8-5.2.4-9.9.6-14.5.6z"/></svg>