<svg xmlns="http://www.w3.org/2000/svg" width="420" height="420" viewBox="0 0 420 420"><path fill="#FFF" d="M210 0C94 0 0 94 0 210s94 210 210 210 210-94 210-210S326 0 210 0zm0 385c-96.6 0-175-78.4-175-175S113.3 35 210 35s175 78.4 175 175-78.4 175-175 175z"/><path fill="#FFF" d="M95.1 207.8c61.2-26.7 102-44.3 122.5-52.8 58.3-24.3 70.4-28.5 78.3-28.6 1.7 0 5.6.4 8.1 2.4 2.1 1.7 2.7 4.1 3 5.7.3 1.6.6 5.4.3 8.3-3.2 33.2-16.8 113.8-23.8 151-2.9 15.7-8.7 21-14.3 21.5-12.2 1.1-21.5-8.1-33.3-15.8-18.5-12.1-28.9-19.7-46.9-31.5-20.7-13.7-7.3-21.2 4.5-33.4 3.1-3.2 56.8-52.1 57.9-56.5.1-.6.3-2.6-1-3.7-1.2-1.1-3-.7-4.3-.4-1.9.4-31.4 19.9-88.6 58.5-8.4 5.8-16 8.6-22.8 8.4-7.5-.2-21.9-4.2-32.6-7.7-13.2-4.3-23.6-6.5-22.7-13.8.5-3.8 5.7-7.7 15.7-11.6z"/></svg>