<svg xmlns="http://www.w3.org/2000/svg" width="420" height="420" viewBox="0 0 420 420"><path clip-rule="evenodd" fill="#FFF" fill-rule="evenodd" d="M358.8 61c-39.5-39.3-92-61-147.9-61C95.6 0 1.8 93.4 1.8 208.1c0 36.7 9.6 72.5 27.9 104L0 420l110.9-28.9c30.5 16.6 64.9 25.3 99.9 25.3h.1C326.1 416.4 420 323 420 208.3c0-55.6-21.7-107.9-61.2-147.3M210.9 381.2c-31.3 0-61.8-8.4-88.5-24.1l-6.3-3.7-65.8 17.2 17.6-63.8-4.1-6.5c-17.4-27.5-26.6-59.4-26.6-92.1 0-95.4 78-173 173.9-173 46.4 0 90.1 18 122.9 50.7 32.8 32.7 50.9 76.2 50.9 122.4-.2 95.3-78.2 172.9-174 172.9m95.3-129.5c-5.2-2.6-30.9-15.2-35.7-16.9-4.8-1.7-8.3-2.6-11.8 2.6s-13.5 16.9-16.5 20.4-6.1 3.9-11.3 1.3c-5.2-2.6-22.1-8.1-42-25.8-15.5-13.8-26-30.8-29.1-36-3-5.2-.3-8 2.3-10.6 2.4-2.3 5.2-6.1 7.8-9.1 2.6-3 3.5-5.2 5.2-8.7 1.7-3.5.9-6.5-.4-9.1-1.3-2.6-11.8-28.2-16.1-38.6-4.2-10.1-8.5-8.8-11.8-8.9-3-.2-6.5-.2-10-.2s-9.1 1.3-13.9 6.5c-4.8 5.2-18.3 17.8-18.3 43.4 0 25.6 18.7 50.3 21.3 53.8 2.6 3.5 36.8 56 89.3 78.5 12.5 5.4 22.2 8.6 29.8 11 12.5 4 23.9 3.4 32.9 2.1 10-1.5 30.9-12.6 35.3-24.7 4.4-12.1 4.4-22.6 3-24.7-1.3-2.4-4.8-3.7-10-6.3"/></svg>