<svg xmlns="http://www.w3.org/2000/svg" width="210" height="210" viewBox="0 0 140 210"><path fill="#C00F00" d="M86.996 24.09c-.775.514-4.135-1.869-5.017-2.047-2.945-1.002-8.272-1.558-10.769.776-.764.714-1.615 1.87-2.544 2.246-.685.276-1.453-.087-2.17-.219-2.114-.388-4.176-1.26-6.313-1.339-1.6-.06-3.156.597-4.729.925-1.382.288-2.768.554-4.135.922-2.048.553-4.18.862-6.103 1.837-1.734.88-3.218 2.313-4.715 3.648-1.064.95-2.04 2.036-2.942 3.188-1.063 1.359-2.02 2.829-2.936 4.322a77.991 77.991 0 0 0-2.935 5.23c-1.104 2.155-2.187 4.332-3.122 6.591a69.675 69.675 0 0 0-2.336 6.59c-.557 1.854-.651 3.889-1.353 5.677-.363.927-1.13 1.568-1.763 2.275-1.07 1.193-2.14 2.398-3.336 3.416-.78.663-1.72 1.03-2.555 1.598-1.067.725-2.7 2.13-3.286 2.612-1.954 1.603-2.5 2.448-3.413 3.421-.552.589-.23.787-.197 1.012.087.582 3.715-1.748 4.16-2.043 1.091-.728 1.994-1.525 2.36-.69.363.824-1.294 1.655-1.897 2.262-.974.982-4.594 3.907-6.351 5.696-.397.402-.465 1.442-.046 1.815.524.464 4.109-2.902 4.83-3.388s3.125-2.762 3.391-2.858c.901-.322.985.045 1.023.295.112.752-2.337 3.266-2.83 3.962-.772 1.09-2.14 3.112-2.867 4.24-.251.389-2.017 3.084-1.636 3.292 1.669.905 3.097-2.031 4.076-3.054.893-.933 1.708-1.963 2.549-2.96 2.586-3.064 3.9-2.662 3.324-1.527-.354.7-2.145 3.14-3.021 4.93-.416.849-3.522 5.673-2.237 5.463.38-.062.944-.062 1.451-.525.692-.63 2.064-3.298 2.671-4.037.769-.934 1.456-1.953 2.155-2.957.672-.967 1.253-2.021 1.958-2.957.67-.888 1.279-1.904 2.157-2.504.342-.235.82.03 1.183.222.514.272.749 1.354.959 1.96.555 1.602.378 2.918 1.347 4.574.41.703 1.157 1.969 1.839 2.286 3.603 1.68.39-2.295.369-5.328-.011-1.668.097-3.872.423-5.594.225-1.203.69-1.74.72-2.971.026-1.07.228-2.3.022-3.342-.199-1.004-1.036-1.955-.803-2.948.343-1.459 1.236-2.51 1.916-3.802 1.083-2.052 2.348-4.103 3.36-6.2.744-1.541 1.402-3.16 2.345-4.548 1.03-1.514 2.337-2.75 3.53-4.097 1.292-1.46 2.69-2.8 3.922-4.326.733-.906 1.233-2.04 1.958-2.957.783-.987 1.316-1.904 2.426-2.299.701-.249 1.395.457 2.1.696 1.09.365 2.233.482 3.355.667 1.114.185 2.232.369 3.354.442 1.05.069 2.102-.008 3.153-.011.92-.004 2.026-.65 2.76-.01.7.61.474 1.95.607 2.947.207 1.578.533 3.176.415 4.765-.133 1.79-.745 3.49-1.16 5.222-.487 2.053-1.039 4.086-1.547 6.133-.395 1.587-.958 3.134-1.16 4.77-.37 3.002-.107 6.088-.55 9.078-.39 2.642-1.27 5.154-1.934 7.72-.435 1.674-.687 3.433-1.359 4.998-.517 1.206-1.427 2.13-2.153 3.185-.841 1.22-2.966 3.656-3.4 5.131-.835 2.825-1.198 3.9-1.15 7.2.035 2.421.548 5.009.699 7.425.135 2.145 1.175 4.206 1.014 6.349-.101 1.383-1.307 2.35-1.756 3.637-1.114 3.196-1.894 6.531-2.912 9.769-1.054 3.352-2.084 6.718-3.304 9.996-.73 1.956-1.312 4.085-2.537 5.68-1.015 1.322-2.597 1.874-3.93 2.738-1.484.96-3.073 1.708-4.522 2.74-1.44 1.026-2.805 2.194-4.124 3.418-1.302 1.208-2.667 2.38-3.728 3.87-1.441 2.027-2.471 4.4-3.714 6.596-.518.912-.794 2.096-1.565 2.728-.481.394-1.255-.318-1.774.006-.466.291-.258 1.498-.782 1.591-1.506.264-3.021-.839-4.537-.665-.653.075-1.14.797-1.57 1.37-.502.663-.666 1.611-1.173 2.272-1.074 1.404-2.29 2.66-3.53 3.87a79.717 79.717 0 0 1-5.105 4.556c-.934.768-2.204 1.046-2.947 2.053-.526.713-.65 1.794-.579 2.727.075.978.504 1.914.998 2.718.915 1.489 2.181 2.653 3.173 4.073 2.12 3.033 4.03 6.252 6.155 9.28 1.318 1.879 2.5 3.96 4.165 5.432 1.31 1.154 2.987 1.628 4.545 2.252.89.355 1.825.566 2.763.67 1.047.118 2.103.034 3.155-.01.921-.04 2.09-.138 2.758-.239.157-.023 4.011-.687 2.55-2.732-.754-1.052-2.27-.806-3.358-1.349-1.025-.511-2.405-.69-2.965-1.802-.903-1.801-.758-4.069-1.014-6.123-.29-2.333-.776-4.686-.625-7.033.1-1.528.772-2.946 1.36-4.316.524-1.22 1.008-2.598 1.956-3.411 2.661-2.287 5.873-3.603 8.647-5.704 3.456-2.617 6.739-5.528 10.016-8.432 3.923-3.477 8.096-6.661 11.581-10.707 3.812-4.425 7.13-9.415 10.185-14.56 2.054-3.459 3.376-7.426 5.073-11.136 1.492-3.26 2.133-7.279 4.489-9.774 1.111-1.177 3.028.052 4.535.21 1.98.21 3.936.699 5.917.887 2.624.249 5.257.35 7.889.426 2.037.057 4.082-.232 6.111-.023.828.086 1.682.36 2.37.9.439.342.755.977.796 1.585.038.574-.318 1.104-.584 1.59-.651 1.19-1.318 2.385-2.152 3.412-1.333 1.64-3.059 2.835-4.318 4.553-1.372 1.874-2.385 4.065-3.52 6.139-1.473 2.7-3.002 5.367-4.298 8.186-.661 1.439-1.083 3.007-1.556 4.544-.112.363.112.973-.192 1.133-.716.386-1.575.17-2.364.237-1.051.09-2.174-.206-3.154.238-.649.296-.98 1.155-1.37 1.82-.593 1.011-.931 2.204-1.564 3.183-.747 1.159-1.757 2.064-2.546 3.186-.977 1.383-1.77 2.931-2.74 4.322-.73 1.04-1.714 1.84-2.353 2.957-2.547 4.45-3.29 3.328.23 7.034 1.592 1.677 3.539 2.863 5.146 4.518 3.087 3.178 5.76 6.872 8.918 9.954.966.942 2.177 1.52 3.36 2.029 1.794.773 3.627 1.537 5.53 1.796 1.958.264 3.973.164 5.911-.25.667-.14 3.14-1.575 1.348-2.726-.835-.536-.822-.67-1.758-.902-4.96-1.229-4.688-2.12-5.953-8.374-.48-2.37-.233-4.868-.626-7.26-.355-2.164-1.503-4.148-1.606-6.346-.05-1.082 1.22-1.875 1.17-2.956-.037-.747-1.71-.933-1.389-1.583 1.641-3.3 4.287-5.788 6.466-8.645 3.895-5.107 7.928-10.074 11.758-15.245 1.79-2.417 3.22-5.173 5.09-7.508 1.672-2.084 3.83-3.602 5.495-5.692.774-.973 1.495-2.123 1.758-3.41.526-2.585 1.458-5.497.554-7.944-1.019-2.759-3.591-4.415-5.746-6.107-4.212-3.306-8.695-6.159-13.25-8.8-3.238-1.88-6.658-3.33-10.075-4.73-2.45-1.003-6.249.156-7.503-2.468-1.184-2.477 1.478-5.4 2.526-7.952 1.234-2.998 1.824-6.933 4.298-8.638 1.209-.833 1.093 3.05 1.99 4.305 1.184 1.655 2.472 3.393 4.16 4.296.698.373 1.47-.536 2.165-.916 1.54-.841 3.13-1.607 4.522-2.74a58.184 58.184 0 0 0 6.671-6.377c1.67-1.868 3.014-4.086 4.506-6.142 1.317-1.812 2.505-3.75 3.918-5.46.671-.812 1.353-1.61 2.042-2.402 1.06-1.217 2.987-4.331 4.354-5.094 2.26-1.261 3.935-2.36 5.169-4.269.745-1.151 2.869-2.265 3.49-2.776 2.078-1.704 2.475-3.117 3.445-4.152.587-.625-.053-1.19-.303-1.296-.577-.241-3.007 2.789-3.479 3.103-1.161.774-2.365 1.425-2.756.537-.225-.81 1.405-1.973 2.017-2.405 1.215-.853 3.952-3.333 5.578-5.587.351-.487.493-1.533.048-1.93-.417-.37-1.968 1.478-2.976 2.635-.716.822-1.557 1.384-2.451 2.012-.81.568-1.942 1.456-2.138 1.526-.957.343-1.047-.048-1.087-.313-.119-.8 2.485-3.47 3.01-4.212.82-1.156 1.711-2.548 2.484-3.747.266-.413 2.144-3.278 1.74-3.498-1.776-.962-3.293 2.16-4.333 3.246a39.355 39.355 0 0 0-2.147 2.385c-2.749 3.257-3.644 2.807-3.032 1.599.376-.743 2.147-3.019 3.076-4.921.442-.903 2.203-3.626.836-3.403-.402.065-1.002.066-1.542.557-.736.671-1.411 2.28-2.056 3.065-.817.994-.814 1.218-1.556 2.286-.715 1.028-.426.553-1.174 1.548-.712.945-3.44 4.816-4.374 5.455l-.517.26c-.356.117-.723.152-1.065.049-.513-.156-.51-1.072-.795-1.586-.51-.92-.917-1.948-1.59-2.717-.545-.622-1.242-1.108-1.978-1.356-.447-.148-1-.016-.998.52.003.65.673.315 1.004.843.365.582.543 1.326.601 2.04.084 1.057-.333 2.13-.183 3.178.13.9.752 1.622.999 2.492.29 1.03.709 2.098.605 3.174-.097 1.01-.633 1.924-1.17 2.727-.85 1.27-2.015 2.219-2.942 3.414-.838 1.084-1.421 2.43-2.349 3.413-1.315 1.39-2.821 2.53-4.321 3.646-1.06.789-2.092 1.834-3.341 2.054-.436.077-.582-.852-.598-1.359-.064-2.122.544-4.242.365-6.355-.172-2.027-1.095-3.89-1.408-5.894-.233-1.492-.243-3.024-.218-4.538.027-1.746.49-3.479.37-5.22-.096-1.41-.465-2.811-1.004-4.08-.41-.967-2.007-1.447-1.786-2.49.54-2.547 1.874-5.055 3.714-6.595 1.28-1.07 3.247.162 4.729-.47.667-.284.996-1.255 1.175-2.047.414-1.843.352-3.786.565-5.675.65-5.822 1.559-9.103-.07-14.749-.51-1.774-.84-3.7-1.798-5.213-.829-1.308-2.098-2.233-3.365-2.937-1.22-.677-2.6-.94-3.947-1.12-1.438-.192-2.934-.377-4.338.015-2.48.693-3.46 1.19-5.308 3.197-.967 1.049-1.59 2.477-2.15 3.864a14.224 14.224 0 0 0-.968 3.862c-.184 1.803-.098 3.635.026 5.446.088 1.301.772 2.564.609 3.855-.17 1.338-.544 2.961-1.56 3.636"/></svg>