<svg xmlns="http://www.w3.org/2000/svg" width="140" height="210" viewBox="0.0004883 0 140 210"><path fill="#E4DCDA" d="M86.997 24.09c-.776.514-4.135-1.869-5.017-2.047-2.945-1.002-8.272-1.558-10.77.777-.763.713-1.614 1.87-2.543 2.245-.685.276-1.453-.087-2.17-.219-2.114-.387-4.176-1.26-6.313-1.339-1.6-.06-3.156.597-4.729.925-1.382.288-2.768.554-4.135.922-2.048.553-4.18.862-6.104 1.837-1.733.88-3.217 2.313-4.713 3.648-1.066.95-2.04 2.036-2.943 3.188-1.063 1.359-2.02 2.83-2.935 4.322a77.782 77.782 0 0 0-2.936 5.23c-1.104 2.155-2.187 4.332-3.122 6.591a69.538 69.538 0 0 0-2.336 6.59c-.557 1.854-.651 3.889-1.353 5.677-.364.927-1.13 1.568-1.763 2.275-1.069 1.193-2.14 2.398-3.337 3.416-.779.663-1.72 1.03-2.554 1.598-1.068.725-2.699 2.13-3.286 2.612-1.955 1.603-2.5 2.448-3.413 3.421-.552.589-.23.787-.197 1.012.086.582 3.715-1.748 4.16-2.043 1.091-.728 1.994-1.525 2.361-.69.362.824-1.294 1.655-1.898 2.262-.974.982-4.594 3.907-6.351 5.696-.397.402-.465 1.442-.046 1.815.524.464 4.233-3.063 4.83-3.388.464-.25.463-.302.839-.702.24-.255 2.287-2.06 2.552-2.156.902-.322.985.045 1.022.295.113.752-2.336 3.266-2.83 3.962a146.82 146.82 0 0 0-2.866 4.24c-.252.389-2.017 3.084-1.636 3.292 1.67.905 3.097-2.031 4.075-3.054.894-.933 1.709-1.962 2.55-2.96 2.586-3.064 3.9-2.662 3.324-1.527-.354.7-2.145 3.14-3.021 4.93-.416.849-3.522 5.673-2.238 5.463.38-.062.945-.062 1.452-.525.692-.63 2.064-3.298 2.671-4.037.769-.934 1.456-1.953 2.155-2.957.672-.967 1.253-2.021 1.958-2.957.67-.888 1.279-1.904 2.157-2.504.342-.235.82.03 1.183.222.515.272.749 1.354.959 1.96.555 1.602.378 2.918 1.347 4.574.41.703 1.157 1.969 1.839 2.286 3.602 1.68.39-2.295.369-5.328-.011-1.668.098-3.872.423-5.594.225-1.203.69-1.74.72-2.971.026-1.07.228-2.3.022-3.342-.2-1.004-1.036-1.955-.803-2.948.343-1.459 1.235-2.51 1.916-3.802 1.083-2.052 2.348-4.103 3.36-6.2.744-1.541 1.402-3.16 2.345-4.548 1.03-1.514 2.337-2.75 3.53-4.097 1.292-1.46 2.69-2.8 3.922-4.326.732-.906 1.233-2.04 1.958-2.957.783-.987 1.316-1.904 2.425-2.299.702-.249 1.396.457 2.101.696 1.09.365 2.232.482 3.355.667 1.114.185 2.231.369 3.354.442 1.05.069 2.102-.008 3.153-.011.92-.004 2.026-.65 2.76-.01.7.61.474 1.95.607 2.947.207 1.578.533 3.176.415 4.765-.133 1.79-.745 3.49-1.16 5.222-.487 2.053-1.039 4.086-1.547 6.133-.395 1.587-.958 3.134-1.16 4.77-.37 3.002-.107 6.088-.55 9.078-.39 2.642-1.27 5.154-1.934 7.72-.435 1.674-.687 3.433-1.359 4.998-.517 1.206-1.427 2.13-2.153 3.185-.841 1.22-2.966 3.656-3.4 5.131-.835 2.825-1.198 3.9-1.151 7.2.036 2.421.55 5.009.7 7.425.135 2.145 1.175 4.206 1.015 6.349-.102 1.383-1.308 2.35-1.757 3.637-1.114 3.196-1.894 6.531-2.912 9.769-1.054 3.352-2.084 6.717-3.304 9.996-.73 1.956-1.312 4.085-2.537 5.68-1.015 1.322-2.597 1.874-3.93 2.738-1.485.96-3.073 1.708-4.522 2.74-1.44 1.026-2.805 2.194-4.124 3.418-1.302 1.208-2.667 2.38-3.728 3.87-1.441 2.027-2.471 4.4-3.714 6.596-.519.912-.794 2.096-1.565 2.728-.481.394-1.255-.318-1.774.006-.466.291-.258 1.498-.782 1.591-1.506.264-3.02-.839-4.537-.665-.653.075-1.14.797-1.57 1.37-.502.663-.666 1.611-1.173 2.272-1.074 1.404-2.29 2.66-3.53 3.87a79.593 79.593 0 0 1-5.105 4.556c-.934.768-2.204 1.046-2.948 2.053-.525.713-.65 1.794-.578 2.727.075.978.504 1.914.998 2.718.915 1.489 2.181 2.653 3.173 4.073 2.119 3.033 4.03 6.252 6.154 9.28 1.319 1.879 2.502 3.96 4.166 5.432 1.309 1.154 2.987 1.628 4.545 2.252.89.355 1.826.566 2.763.67 1.047.118 2.103.034 3.155-.01.921-.04 3.66-.01 2.757-.239-.153-.039 4.012-.687 2.552-2.732-.755-1.052-2.27-.806-3.359-1.349-1.025-.511-2.406-.69-2.965-1.802-.903-1.801-.759-4.069-1.014-6.123-.291-2.333-.776-4.686-.624-7.033.099-1.528.77-2.946 1.358-4.316.525-1.22 1.009-2.598 1.957-3.411 2.661-2.287 5.873-3.603 8.648-5.704 3.455-2.617 6.738-5.528 10.015-8.432 3.923-3.477 8.095-6.661 11.581-10.707 3.812-4.425 7.13-9.415 10.184-14.56 2.055-3.459 3.377-7.426 5.073-11.136 1.492-3.26 2.133-7.279 4.49-9.774 1.11-1.177 3.028.052 4.535.21 1.98.21 3.935.699 5.917.887 2.624.249 5.256.35 7.888.426 2.037.057 4.082-.232 6.112-.023.828.086 1.681.36 2.369.9.44.342.756.977.797 1.585.038.574-.319 1.104-.584 1.59-.652 1.19-1.319 2.385-2.153 3.412-1.333 1.64-3.058 2.835-4.317 4.553-1.371 1.874-2.386 4.065-3.52 6.139-1.473 2.7-3.003 5.367-4.298 8.186-.662 1.439-1.083 3.007-1.556 4.544-.112.363.111.973-.192 1.133-.716.386-1.576.17-2.365.237-1.05.09-2.174-.206-3.153.238-.648.296-.98 1.155-1.371 1.82-.593 1.011-.93 2.204-1.564 3.183-.747 1.159-1.756 2.064-2.546 3.186-.976 1.383-1.769 2.931-2.74 4.322-.73 1.04-1.714 1.84-2.352 2.957-2.547 4.45-3.29 3.328.23 7.034 1.592 1.677 3.538 2.863 5.146 4.518 3.087 3.178 5.76 6.872 8.918 9.954.966.942 2.176 1.52 3.36 2.029 1.794.773 3.627 1.537 5.53 1.796 1.957.264 3.974.164 5.91-.25.667-.14 3.141-1.575 1.348-2.726-.834-.536-.821-.67-1.758-.902-4.959-1.229-4.687-2.12-5.953-8.374-.48-2.37-.232-4.868-.626-7.26-.354-2.164-1.503-4.148-1.605-6.346-.051-1.082 1.22-1.875 1.169-2.956-.036-.747-1.71-.933-1.388-1.583 1.64-3.3 4.286-5.788 6.467-8.645 3.893-5.107 7.926-10.074 11.756-15.245 1.79-2.417 3.221-5.173 5.091-7.508 1.671-2.084 3.829-3.602 5.495-5.692.774-.973 1.495-2.123 1.757-3.41.527-2.585 1.457-5.497.554-7.944-1.017-2.759-3.59-4.415-5.746-6.107-4.212-3.306-8.694-6.159-13.249-8.8-3.238-1.88-6.658-3.33-10.075-4.73-2.45-1.003-6.248.155-7.503-2.468-1.185-2.477 1.477-5.4 2.525-7.952 1.235-2.998 1.824-6.933 4.298-8.638 1.21-.833 1.094 3.05 1.99 4.305 1.184 1.655 2.472 3.393 4.16 4.296.699.373 1.471-.536 2.166-.916 1.539-.841 3.13-1.607 4.521-2.74a58.184 58.184 0 0 0 6.672-6.377c1.669-1.868 3.014-4.086 4.506-6.142 1.317-1.812 2.505-3.75 3.919-5.46.669-.812 1.351-1.61 2.04-2.402 1.061-1.217 2.987-4.331 4.354-5.094 2.26-1.261 3.936-2.36 5.17-4.269.744-1.151 2.868-2.265 3.49-2.776 2.078-1.704 2.475-3.117 3.445-4.152.587-.625-.054-1.19-.304-1.296-.576-.241-3.007 2.789-3.479 3.103-1.16.774-2.365 1.425-2.755.537-.225-.81 1.405-1.973 2.016-2.405 1.215-.853 3.952-3.333 5.58-5.587.35-.487.492-1.533.046-1.93-.417-.37-1.967 1.478-2.975 2.635-.716.823-1.557 1.384-2.452 2.012-.81.568-1.942 1.456-2.137 1.526-.957.343-1.047-.048-1.087-.313-.12-.8 2.484-3.47 3.009-4.212.82-1.156 1.712-2.548 2.485-3.747.266-.413 2.144-3.278 1.74-3.498-1.776-.962-3.295 2.16-4.334 3.246a39.355 39.355 0 0 0-2.146 2.385c-2.75 3.257-3.646 2.807-3.032 1.599.375-.743 2.146-3.019 3.075-4.921.442-.903 2.204-3.626.837-3.403-.403.065-1.002.066-1.542.557-.737.672-1.412 2.28-2.056 3.065-.817.994-.814 1.218-1.557 2.286-.715 1.028-.425.553-1.174 1.548-.711.945-3.44 4.816-4.374 5.455l-.515.26c-.358.117-.725.152-1.067.049-.512-.156-.51-1.072-.794-1.586-.511-.92-.917-1.948-1.591-2.717-.544-.622-1.242-1.108-1.978-1.356-.446-.148-.999-.016-.997.52.002.65.672.315 1.003.843.365.582.544 1.326.602 2.04.084 1.057-.333 2.13-.183 3.178.129.9.75 1.622.998 2.492.291 1.03.709 2.098.605 3.174-.096 1.01-.632 1.924-1.17 2.727-.85 1.27-2.014 2.219-2.942 3.414-.839 1.084-1.42 2.43-2.347 3.413-1.317 1.39-2.823 2.53-4.323 3.646-1.06.789-2.09 1.834-3.34 2.055-.436.076-.583-.853-.598-1.36-.065-2.122.544-4.242.364-6.355-.172-2.027-1.095-3.89-1.407-5.894-.234-1.492-.243-3.024-.219-4.538.027-1.746.49-3.479.37-5.22-.096-1.41-.465-2.811-1.004-4.08-.41-.967-2.008-1.447-1.786-2.49.54-2.547 1.874-5.055 3.715-6.595 1.28-1.07 3.246.162 4.728-.47.667-.284.997-1.255 1.176-2.047.412-1.843.352-3.786.565-5.675.65-5.822 1.558-9.103-.07-14.749-.511-1.774-.841-3.7-1.798-5.213-.83-1.308-2.098-2.233-3.366-2.937-1.22-.677-2.6-.94-3.947-1.12-1.437-.192-2.934-.377-4.338.015-2.48.693-3.459 1.19-5.307 3.197-.967 1.049-1.59 2.477-2.15 3.864a14.224 14.224 0 0 0-.969 3.862c-.183 1.803-.097 3.635.027 5.446.088 1.301.771 2.564.608 3.855-.17 1.339-.544 2.961-1.56 3.636"/></svg>