<svg xmlns="http://www.w3.org/2000/svg" width="512" height="512"><path fill="#C33" d="M0 0h512v512H0z"/><path fill="#FC0" d="M475.9609375 218.1289063c-3.4990234 0-6.609375 1.0800781-9.3320313 3.2402344-4.4072266 3.6015625-8.5869141 7.0205078-12.5390625 10.2607422-3.9550781 3.2402344-7.84375 6.3525391-11.6650391 9.3349609-3.8242188 2.984375-7.6796875 5.8896484-11.5673828 8.7177734-3.8886719 2.8300781-7.9716797 5.5810547-12.2480469 8.2548828-3.8886719 2.46875-8.0683594 4.9375-12.5400391 7.40625s-8.8154297 4.7060547-13.0253906 6.7119141c-4.2138672 2.0058594-8.1015625 3.6523438-11.6650391 4.9375-3.5664063 1.2871094-6.4492188 1.9287109-8.6513672 1.9287109-.7431641 0-1.4609375-.0654297-2.1533203-.1962891-4.0195313-.7607422-7.1904297-3.7294922-9.5117188-8.9072266-2.7216797-6.0683594-4.796875-14.4511719-6.2216797-25.1503906-.7773438-5.8632813-1.2636719-11.2109375-1.4580078-16.046875-.1943359-4.8339844-.5195313-9.2578125-.9716797-13.2695313-.4560547-4.0117188-1.2001953-7.6621094-2.2353516-10.9550781-1.0390625-3.2910156-2.6582031-6.3261719-4.8613281-9.1035156-.3730469-.4799805-.8046875-.9438477-1.2939453-1.3911133-.8730469-.7978516-1.9316406-1.5429688-3.1767578-2.2348633-1.9443359-1.0800781-4.1162109-2.0058594-6.5136719-2.7773438-2.3994141-.7714844-4.8935547-1.3623047-7.484375-1.7744141-2.5947266-.4101563-5.1220703-.6171875-7.5820313-.6171875-3.5 0-7.5185547 1.2607422-12.0537109 3.7802734-4.5380859 2.5214844-9.3017578 5.9160156-14.2900391 10.1835938-4.9902344 4.2695313-10.0117188 9.2070313-15.0664063 14.8125-5.0546875 5.6074219-9.8515625 11.4443359-14.3867188 17.5126953-2.7216797 3.8066406-5.5742188 7.9726563-8.5546875 12.4980469-2.9824219 4.5273438-5.8320313 8.7441406-8.5537109 12.6523438-1.2861328 1.8476563-2.5146484 3.5458984-3.6850586 5.0947266-1.3066406 1.7285156-2.5410156 3.2705078-3.7026367 4.6259766-2.2060547 2.5722656-3.8886719 3.8574219-5.0546875 3.8574219-.3896484 0-.6503906-1.0800781-.7783203-3.2402344-.1298828-2.1601563-.2275391-4.9375-.2910156-8.3320313-.0673828-3.3945313-.1640625-7.2519531-.2919922-11.5722656-.1308594-4.3203125-.2919922-8.6142578-.4863281-12.8837891-.1943359-4.2675781-.4853516-8.3564453-.8740234-12.2666016-.3896484-3.9082031-.9091797-7.1484375-1.5556641-9.7207031-1.5893555-6.1201172-4.5166016-11.2172852-8.7832031-15.2900391-.609375-.581543-1.2460938-1.1425781-1.9101563-1.6826172-5.3154297-4.3203125-11.9257813-6.4804688-19.8300781-6.4804688-7.3876953 0-14.3554688 1.3378906-20.8994141 4.0117188-6.5458984 2.6757813-12.734375 6.6347656-18.5664063 11.8808594-2.7216797 2.46875-5.7353516 5.5039063-9.0400391 9.1035156-3.3046875 3.6015625-6.6435547 7.3818359-10.0126953 11.3408203-3.3720703 3.9609375-6.609375 7.8691406-9.7207031 11.7265625-3.1103516 3.8574219-5.8320313 7.3291016-8.1650391 10.4150391-.2617188.4121094-1.0390625 1.4921875-2.3330078 3.2402344-.8837891 1.1923828-1.8720703 2.5273438-2.9658203 4.0053711-.5112305.690918-1.0454102 1.4125977-1.6025391 2.1665039-1.75 2.3671875-3.5966797 4.8867188-5.5410156 7.5605469-1.9443359 2.6757813-3.7910156 5.1953125-5.5410156 7.5605469-1.75 2.3671875-3.2412109 4.3730469-4.4716797 6.0175781-1.2333984 1.6464844-1.9775391 2.6757813-2.2358398 3.0859375.3891602-2.2617188 1.1000977-5.4248047 2.1386719-9.4892578 1.0361328-4.0625 2.2358398-8.6142578 3.5966797-13.6552734 1.3608398-5.0390625 2.8188477-10.3115234 4.3745117-15.8154297 1.5556641-5.5019531 2.9462891-10.8007813 4.1796875-15.8925781 1.2304688-5.0917969 2.2666016-9.7451172 3.1103516-13.9638672.8417969-4.2167969 1.2636719-7.5605469 1.2636719-10.0292969 0-2.8789063-.2275391-5.6318359-.6796875-8.2548828-.4560547-2.6230469-1.3310547-4.9375-2.625-6.9433594-.4775391-.7382813-1.0341797-1.4208984-1.6694336-2.0478516-1.0908203-1.0761719-2.4140625-1.9873047-3.9682617-2.7353516-2.4638672-1.1816406-5.7050781-1.7744141-9.7211914-1.7744141-4.4077148 0-8.1015625.5927734-11.081543 1.7744141-2.9829102 1.1835938-5.4433594 2.6230469-7.3876953 4.3203125-1.9438477 1.6972656-3.4355469 3.5488281-4.4711914 5.5546875-1.0390625 2.0058594-1.8803711 3.8837891-2.527832 5.6318359-.9082031 2.5722656-1.6220703 5.8125-2.1381836 9.7207031-.5195313 3.9101563-.972168 8.1533203-1.3608398 12.7294922-.3891602 4.578125-.777832 9.2578125-1.1665039 14.0410156-.3891602 4.7832031-.972168 9.3349609-1.75 13.6552734-.9082031 4.9375-1.7192383 9.3105469-2.4301758 13.1152344-.7138672 3.8066406-1.3305664 7.4326172-1.8466797 10.8779297-.5195313 3.4472656-.9082031 6.8662109-1.1665039 10.2607422-.2612305 3.3945313-.3891602 7.2011719-.3891602 11.4179688 0 4.7324219.5498047 9.2070313 1.652832 13.4238281 1.0996094 4.21875 2.8188477 7.8691406 5.1518555 10.9550781.5830078.7714844 1.2104492 1.5029297 1.8828125 2.1943359 2.0166016 2.0732422 4.434082 3.7851563 7.2548828 5.1347656 3.7573242 1.8007813 8.2929688 2.7001953 13.6088867 2.7001953 3.7573242 0 7.3208008-.6943359 10.6928711-2.0830078 3.3686523-1.3886719 6.2207031-3.4189453 8.5537109-6.0947266 1.8134766-2.0566406 3.8554688-4.5253906 6.1240234-7.40625 2.2666016-2.8789063 4.5693359-5.8632813 6.9023438-8.9492188s4.5986328-6.1191406 6.8037109-9.1035156c2.203125-2.9824219 4.0830078-5.6054688 5.6386719-7.8691406 6.2207031-8.640625 12.2783203-16.7148438 18.1777344-24.2246094 5.8955078-7.5078125 11.3398438-14.0410156 16.3300781-19.5957031 4.9882813-5.5546875 9.2988281-9.9257813 12.9287109-13.1152344 3.6269531-3.1875 6.2216797-4.7832031 7.7763672-4.7832031 1.2949219 0 2.2998047 3.8066406 3.0136719 11.4179688.074707.8012695.1479492 1.6352539.2192383 2.5024414.605957 7.3735352 1.0854492 17.1333008 1.4331055 29.2827148.2587891 8.1269531.8417969 15.1474609 1.75 21.0615234.9052734 5.9160156 2.4609375 10.75 4.6660156 14.5039063.8989258 1.5332031 1.9277344 2.9033203 3.0859375 4.1103516 1.6796875 1.75 3.6318359 3.1572266 5.8574219 4.2216797 3.7578125 1.8007813 8.6181641 2.7001953 14.5810547 2.7001953 3.8876953 0 7.7431641-1.0273438 11.5673828-3.0859375 3.8212891-2.0566406 7.7763672-5.0146484 11.859375-8.8720703s8.4238281-8.640625 13.0253906-14.3496094c4.5996094-5.7089844 9.4931641-12.1630859 14.6787109-19.3642578 4.1464844-5.65625 8.1650391-11.1337891 12.0537109-16.4326172 3.8876953-5.296875 7.484375-9.9765625 10.7900391-14.0410156 3.3046875-4.0625 6.1542969-7.3291016 8.5537109-9.7978516 2.3964844-2.46875 4.1132813-3.703125 5.1523438-3.703125.2578125 0 .5166016.9785156.7773438 2.9316406.2587891 1.9550781.4863281 4.2431641.6806641 6.8662109l.5185547 7.0019531c.0214844.2890625.4199219 5.4189453.5507813 6.6533203 1.8134766 12.6523438 4.2773438 22.9394531 7.3876953 30.859375 3.1103516 7.921875 6.7070313 14.09375 10.7900391 18.515625.5683594.6152344 1.1425781 1.203125 1.7226563 1.7636719 3.5917969 3.4707031 7.4228516 5.890625 11.4970703 7.2626953 4.7294922 1.5957031 9.6240234 2.3916016 14.6787109 2.3916016 5.4433594 0 11.1113281-.8486328 17.0107422-2.5458984 5.8964844-1.6972656 11.6953125-3.8310547 17.4003906-6.4033203 5.7021484-2.5703125 11.0820313-5.3476563 16.1367188-8.3320313 5.0546875-2.9824219 9.4589844-5.7089844 13.2197266-8.1777344 4.6660156-3.1875 9.3955078-6.6347656 14.1923828-10.3378906 4.7929688-3.703125 9.3320313-7.40625 13.6083984-11.109375 4.2773438-3.703125 8.1660156-7.2519531 11.6650391-10.6464844 3.5-3.3945313 6.2851563-6.3769531 8.3603516-8.9492188 1.1660156-1.5429688 2.3632813-3.1875 3.5966797-4.9375 1.2294922-1.7480469 2.2988281-3.4716797 3.2080078-5.1689453.9042969-1.6972656 1.6523438-3.2910156 2.2353516-4.7832031.5830078-1.4902344.875-2.7001953.875-3.6259766 0-4.7304683-2.0751953-7.0976558-6.2216797-7.0976558z"/></svg>